# xmcd CD database file
#
# Track frame offsets:
#	150
#	75215
#	120777
#	176110
#	243882
#
# Disc length: 4081 seconds
#
# Revision: 1
# Processed by: cddbd v1.5.2PL0 Copyright (c) Steve Scherf et al.
# Submitted via: CDex 1.70beta2
#
DISCID=290fef05
DTITLE=Wadada Leo Smith - Ten Freedom Summers [CD3]
DYEAR=2011
DGENRE=Jazz
TTITLE0=The Freedom Riders Ride
TTITLE1=Medgar Evers: A Love-Voice of a Thousand Years' Journey For Liberty and Justice
TTITLE2=The D.C. Wall: A War Memorial For All Times
TTITLE3=Buzzsaw: The Myth of a Free Press
TTITLE4=The Little Rock Nine: A Force For Desegregation In Education, 1957
EXTD=YEAR: 2011
EXTT0=
EXTT1=
EXTT2=
EXTT3=
EXTT4=
PLAYORDER=
